<?xml version="1.0" encoding="UTF-8" standalone="no"?>
<!-- Created with Inkscape (http://www.inkscape.org/) -->

<svg
   xmlns:osb="http://www.openswatchbook.org/uri/2009/osb"
   xmlns:dc="http://purl.org/dc/elements/1.1/"
   xmlns:cc="http://creativecommons.org/ns#"
   xmlns:rdf="http://www.w3.org/1999/02/22-rdf-syntax-ns#"
   xmlns:svg="http://www.w3.org/2000/svg"
   xmlns="http://www.w3.org/2000/svg"
   xmlns:xlink="http://www.w3.org/1999/xlink"
   xmlns:sodipodi="http://sodipodi.sourceforge.net/DTD/sodipodi-0.dtd"
   xmlns:inkscape="http://www.inkscape.org/namespaces/inkscape"
   width="48px"
   height="48px"
   id="svg2985"
   version="1.1"
   inkscape:version="0.48.5 r10040"
   sodipodi:docname="airbus_spd_limit.svg">
  <defs
     id="defs2987">
    <linearGradient
       id="linearGradient5782"
       osb:paint="solid">
      <stop
         style="stop-color:#323232;stop-opacity:1;"
         offset="0"
         id="stop5784" />
    </linearGradient>
    <linearGradient
       id="linearGradient5412"
       osb:paint="solid">
      <stop
         style="stop-color:#af0063;stop-opacity:1;"
         offset="0"
         id="stop5414" />
    </linearGradient>
    <pattern
       patternUnits="userSpaceOnUse"
       width="34.9375"
       height="5.375"
       patternTransform="translate(7.71875,41.3125)"
       id="pattern5851">
      <g
         id="g5847"
         transform="translate(-7.71875,-41.3125)">
        <rect
           style="fill:#000000;fill-opacity:0;fill-rule:nonzero;stroke:#323232;stroke-width:0;stroke-miterlimit:4;stroke-opacity:1;stroke-dasharray:none;stroke-dashoffset:0"
           id="rect5800"
           width="34.813999"
           height="2.6294737"
           x="7.7832417"
           y="43.999527" />
        <rect
           y="41.370525"
           x="7.7832417"
           height="2.6294737"
           width="34.814232"
           id="rect5845"
           style="fill:#323232;fill-opacity:1;fill-rule:nonzero;stroke:#323232;stroke-width:0;stroke-miterlimit:4;stroke-opacity:1;stroke-dasharray:none;stroke-dashoffset:0" />
      </g>
    </pattern>
  </defs>
  <sodipodi:namedview
     id="base"
     pagecolor="#ffffff"
     bordercolor="#666666"
     borderopacity="1.0"
     inkscape:pageopacity="0.0"
     inkscape:pageshadow="2"
     inkscape:zoom="7.73"
     inkscape:cx="25.807853"
     inkscape:cy="26.171035"
     inkscape:current-layer="airbus-vor-sym"
     showgrid="true"
     inkscape:grid-bbox="true"
     inkscape:document-units="px"
     inkscape:window-width="1197"
     inkscape:window-height="667"
     inkscape:window-x="20"
     inkscape:window-y="20"
     inkscape:window-maximized="0" />
  <metadata
     id="metadata2990">
    <rdf:RDF>
      <cc:Work
         rdf:about="">
        <dc:format>image/svg+xml</dc:format>
        <dc:type
           rdf:resource="http://purl.org/dc/dcmitype/StillImage" />
        <dc:title />
      </cc:Work>
    </rdf:RDF>
  </metadata>
  <g
     id="airbus-spd-sym"
     inkscape:label="Layer 1"
     inkscape:groupmode="layer">
    <path
       style="fill:#323232;fill-opacity:1;stroke:none"
       d="M 12.5 11.5 C 11.276818 12.626179 10.226321 13.93529 9.375 15.375 L 38.625 15.375 C 37.773679 13.93529 36.723182 12.626179 35.5 11.5 L 12.5 11.5 z "
       id="rect3058" />
    <path
       style="fill:#af0063;fill-opacity:1;stroke:none"
       d="M 9.4375 15.28125 C 8.706022 16.49978 8.0972549 17.795497 7.6875 19.1875 L 40.3125 19.1875 C 39.902745 17.795497 39.293978 16.49978 38.5625 15.28125 L 9.4375 15.28125 z "
       id="rect4544" />
    <path
       style="fill:#323232;fill-opacity:1;stroke:none"
       d="M 7.71875 19.09375 C 7.3437512 20.340744 7.1407327 21.650439 7.0625 23 L 40.9375 23 C 40.859267 21.650439 40.656249 20.340744 40.28125 19.09375 L 7.71875 19.09375 z "
       id="rect4556" />
    <path
       style="fill:#af0063;fill-opacity:1;stroke:none"
       d="M 7.0625 22.90625 C 7.0396116 23.267297 7 23.633178 7 24 C 7 24.945579 7.1015573 25.877693 7.25 26.78125 L 40.75 26.78125 C 40.898443 25.877693 41 24.945579 41 24 C 41 23.633178 40.960388 23.267297 40.9375 22.90625 L 7.0625 22.90625 z "
       id="rect4558" />
    <path
       style="fill:#323232;fill-opacity:1;stroke:none"
       d="M 7.21875 26.6875 C 7.4348196 28.051579 7.8235864 29.358048 8.34375 30.59375 L 39.65625 30.59375 C 40.176414 29.358048 40.56518 28.051579 40.78125 26.6875 L 7.21875 26.6875 z "
       id="rect4572" />
    <path
       style="fill:#af0063;fill-opacity:1;stroke:none"
       d="M 8.28125 30.5 C 8.8624157 31.905891 9.6447903 33.188749 10.5625 34.375 L 37.4375 34.375 C 38.35521 33.188749 39.137584 31.905891 39.71875 30.5 L 8.28125 30.5 z "
       id="rect4574" />
    <path
       style="fill:#323232;fill-opacity:1;stroke:none"
       d="M 10.46875 34.28125 C 11.63072 35.807354 13.051977 37.12846 14.65625 38.1875 L 33.34375 38.1875 C 34.948023 37.12846 36.36928 35.807354 37.53125 34.28125 L 10.46875 34.28125 z "
       id="rect4578" />
    <path
       style="fill:#af0063;fill-opacity:1;stroke:none"
       d="M 14.5 38.09375 C 17.213218 39.926763 20.479185 41 24 41 C 27.520815 41 30.786782 39.926763 33.5 38.09375 L 14.5 38.09375 z "
       id="rect4580" />
    <path
       style="fill:#323232;fill-opacity:1;stroke:none"
       d="M 24 7 C 22.20493 7 20.468087 7.2655778 18.84375 7.78125 L 29.15625 7.78125 C 27.531913 7.2655778 25.79507 7 24 7 z "
       id="rect4592" />
    <path
       style="fill:#af0063;fill-opacity:1;stroke:none"
       d="M 19.1875 7.6875 C 16.607244 8.4470332 14.285939 9.80207 12.375 11.59375 L 35.625 11.59375 C 33.714061 9.80207 31.392756 8.4470332 28.8125 7.6875 L 19.1875 7.6875 z "
       id="rect4594" />
  </g>
</svg>
